<svg width="381" height="381" viewBox="0 0 381 381" fill="none" xmlns="http://www.w3.org/2000/svg">
<path d="M167.197 40.3458C167.738 39.8157 168.008 39.5506 168.243 39.3298C180.746 27.5567 200.254 27.5567 212.757 39.3298C212.992 39.5506 213.262 39.8157 213.803 40.3458C214.128 40.6639 214.29 40.823 214.445 40.9703C222.445 48.6056 233.782 51.6433 244.528 49.0311C244.735 48.9807 244.956 48.9242 245.396 48.811C246.13 48.6224 246.496 48.5282 246.81 48.4542C263.524 44.5098 280.419 54.2642 285.36 70.7114C285.453 71.0199 285.555 71.3847 285.758 72.1143C285.88 72.5522 285.942 72.7711 286.002 72.9758C289.113 83.5884 297.412 91.8875 308.024 94.9985C308.229 95.0585 308.448 95.1195 308.886 95.2417C309.615 95.4452 309.98 95.5469 310.289 95.6396C326.736 100.581 336.49 117.476 332.546 134.19C332.472 134.504 332.378 134.871 332.189 135.604C332.076 136.044 332.019 136.265 331.969 136.472C329.357 147.218 332.394 158.555 340.03 166.555C340.177 166.71 340.336 166.872 340.654 167.197C341.184 167.738 341.449 168.008 341.67 168.243C353.443 180.746 353.443 200.254 341.67 212.757C341.449 212.992 341.184 213.262 340.654 213.803C340.336 214.128 340.177 214.29 340.03 214.445C332.394 222.445 329.357 233.782 331.969 244.528C332.019 244.735 332.076 244.956 332.189 245.396C332.378 246.129 332.472 246.496 332.546 246.81C336.49 263.524 326.736 280.419 310.289 285.36C309.98 285.453 309.615 285.555 308.886 285.758C308.448 285.881 308.229 285.942 308.024 286.002C297.412 289.113 289.113 297.412 286.002 308.024C285.942 308.229 285.881 308.448 285.758 308.886C285.555 309.615 285.453 309.98 285.36 310.289C280.419 326.736 263.524 336.49 246.81 332.546C246.496 332.472 246.129 332.378 245.396 332.189C244.956 332.076 244.735 332.019 244.528 331.969C233.782 329.357 222.445 332.394 214.445 340.03C214.29 340.177 214.128 340.336 213.803 340.654C213.262 341.184 212.992 341.449 212.757 341.67C200.254 353.443 180.746 353.443 168.243 341.67C168.008 341.449 167.738 341.184 167.197 340.654C166.872 340.336 166.71 340.177 166.555 340.03C158.555 332.394 147.218 329.357 136.472 331.969C136.265 332.019 136.044 332.076 135.604 332.189C134.871 332.378 134.504 332.472 134.19 332.546C117.476 336.49 100.581 326.736 95.6396 310.289C95.5469 309.98 95.4452 309.615 95.2417 308.886C95.1195 308.448 95.0585 308.229 94.9985 308.024C91.8875 297.412 83.5884 289.113 72.9758 286.002C72.7711 285.942 72.5522 285.88 72.1143 285.758C71.3847 285.555 71.0199 285.453 70.7114 285.36C54.2642 280.419 44.5098 263.524 48.4542 246.81C48.5282 246.496 48.6224 246.13 48.811 245.396C48.9242 244.956 48.9807 244.735 49.0311 244.528C51.6433 233.782 48.6056 222.445 40.9703 214.445C40.823 214.29 40.6639 214.128 40.3458 213.803C39.8157 213.262 39.5506 212.992 39.3298 212.757C27.5567 200.254 27.5567 180.746 39.3298 168.243C39.5506 168.008 39.8157 167.738 40.3458 167.197C40.6639 166.872 40.823 166.71 40.9703 166.555C48.6056 158.555 51.6433 147.218 49.0311 136.472C48.9807 136.265 48.9242 136.044 48.811 135.604C48.6224 134.871 48.5282 134.504 48.4542 134.19C44.5098 117.476 54.2642 100.581 70.7114 95.6396C71.0199 95.5469 71.3847 95.4452 72.1143 95.2417C72.5522 95.1195 72.7711 95.0585 72.9758 94.9985C83.5884 91.8875 91.8875 83.5884 94.9985 72.9758C95.0585 72.7711 95.1195 72.5522 95.2417 72.1143C95.4452 71.3847 95.5469 71.0199 95.6396 70.7114C100.581 54.2642 117.476 44.5098 134.19 48.4542C134.504 48.5282 134.871 48.6224 135.604 48.811C136.044 48.9242 136.265 48.9807 136.472 49.0311C147.218 51.6433 158.555 48.6056 166.555 40.9703C166.71 40.823 166.872 40.6639 167.197 40.3458Z" fill="#FFA45C"/>
</svg>
