<svg width="380" height="381" viewBox="0 0 380 381" fill="none" xmlns="http://www.w3.org/2000/svg">
<path d="M230.389 51.223C293.109 23.9828 356.767 87.6408 329.527 150.361L325.023 160.731C316.707 179.88 316.707 201.62 325.023 220.769L329.527 231.139C356.767 293.859 293.109 357.517 230.389 330.277L220.019 325.773C200.87 317.457 179.13 317.457 159.981 325.773L149.611 330.277C86.8908 357.517 23.2328 293.859 50.473 231.139L54.9768 220.769C63.2934 201.62 63.2934 179.88 54.9768 160.731L50.473 150.361C23.2328 87.6408 86.8908 23.9828 149.611 51.223L159.981 55.7268C179.13 64.0434 200.87 64.0434 220.019 55.7268L230.389 51.223Z" fill="#FFA45C"/>
</svg>
