<svg width="381" height="381" viewBox="0 0 381 381" fill="none" xmlns="http://www.w3.org/2000/svg">
<path d="M40.75 183.607C40.75 104.709 107.907 40.75 190.75 40.75C273.593 40.75 340.75 104.709 340.75 183.607L340.75 283.607C340.75 315.166 313.887 340.75 280.75 340.75C270.928 340.75 261.657 338.502 253.474 334.518C249.304 332.487 245.144 330.262 240.966 328.027C226.263 320.161 211.342 312.179 195.02 312.179H186.48C170.158 312.179 155.237 320.161 140.534 328.027C136.356 330.262 132.196 332.487 128.026 334.518C119.843 338.502 110.572 340.75 100.75 340.75C67.6129 340.75 40.75 315.166 40.75 283.607L40.75 183.607Z" fill="#FFA45C"/>
</svg>
