<svg width="381" height="381" viewBox="0 0 381 381" fill="none" xmlns="http://www.w3.org/2000/svg">
<path d="M133.665 66.4998C151.231 53.741 160.013 47.3616 169.374 44.1902C182.913 39.6033 197.587 39.6033 211.126 44.1902C220.487 47.3616 229.269 53.741 246.835 66.4998L286.333 95.1902C296.764 102.767 301.979 106.555 306.231 111.103C312.375 117.676 317.089 125.452 320.073 133.939C322.138 139.812 323.084 146.188 324.975 158.939L332.288 208.251C335.605 230.62 337.264 241.805 335.59 251.886C333.168 266.468 325.85 279.79 314.84 289.657C307.229 296.478 296.899 301.079 276.237 310.282L229.426 331.132C216.957 336.685 210.723 339.462 204.314 340.881C195.05 342.932 185.45 342.932 176.186 340.881C169.777 339.462 163.543 336.685 151.074 331.132L104.263 310.282C83.6015 301.079 73.2707 296.478 65.6597 289.657C54.6505 279.79 47.3319 266.468 44.9102 251.886C43.2359 241.805 44.8947 230.62 48.2121 208.251L55.5252 158.939C57.4162 146.187 58.3617 139.812 60.4268 133.939C63.4112 125.452 68.1247 117.676 74.2691 111.103C78.5206 106.555 83.7362 102.767 94.1672 95.1902L133.665 66.4998Z" fill="#FFA45C"/>
</svg>
