<svg width="381" height="381" viewBox="0 0 381 381" fill="none" xmlns="http://www.w3.org/2000/svg">
<path d="M134.686 55.3154C165.776 25.2282 215.224 25.2282 246.314 55.3154C255.828 64.5218 267.484 71.2311 280.238 74.8419C321.919 86.6424 346.642 129.336 336.052 171.223C332.812 184.041 332.812 197.459 336.052 210.277C346.642 252.164 321.919 294.858 280.238 306.658C267.484 310.269 255.828 316.978 246.314 326.185C215.224 356.272 165.776 356.272 134.686 326.185C125.172 316.978 113.516 310.269 100.762 306.658C59.0815 294.858 34.3578 252.164 44.9476 210.277C48.1879 197.459 48.1879 184.041 44.9476 171.223C34.3578 129.336 59.0815 86.6424 100.762 74.8419C113.516 71.2311 125.172 64.5218 134.686 55.3154Z" fill="#FFA45C"/>
</svg>
