<svg width="374" height="374" viewBox="0 0 374 374" fill="none" xmlns="http://www.w3.org/2000/svg">
<rect width="374" height="374" rx="25" fill="white"/>
<path d="M109.668 197.973C116.726 192.615 126.257 192.615 133.315 197.973L170.118 225.909C177.204 231.288 180.219 240.882 177.483 249.677L163.427 294.878C160.696 303.658 152.91 309.5 144.236 309.5H98.7461C90.0721 309.5 82.287 303.658 79.5566 294.878L65.499 249.677C62.7638 240.882 65.7789 231.288 72.8652 225.909L109.668 197.973Z" fill="#E2E88B" stroke="white" stroke-width="5"/>
<path d="M317.136 54.8518C322.383 59.4962 324.958 66.9331 325.291 74.6045L325.29 74.608C325.634 82.3007 323.978 90.078 322.239 98.1094L322.239 98.1101C320.333 106.923 317.476 120.142 315.095 131.157C313.904 136.665 312.833 141.623 312.059 145.203C311.672 146.993 311.359 148.439 311.143 149.437C311.035 149.936 310.952 150.324 310.895 150.586C310.867 150.717 310.846 150.817 310.831 150.884C310.824 150.918 310.818 150.944 310.814 150.961C310.813 150.969 310.811 150.976 310.81 150.98C310.81 150.982 310.809 150.983 310.809 150.984V150.985C310.807 150.994 310.804 151.006 310.801 151.02C310.792 151.06 310.778 151.121 310.759 151.202C310.721 151.364 310.663 151.605 310.587 151.917C310.435 152.542 310.207 153.448 309.909 154.562C309.312 156.794 308.436 159.852 307.319 163.156C306.2 166.467 304.851 169.989 303.314 173.165C301.859 176.172 300.298 178.737 298.695 180.519L298.373 180.865C290.381 189.184 277.15 191.823 267.134 187.3L267.132 187.299C258.997 183.634 253.19 176.015 248.218 167.738L248.219 167.739C243.366 159.64 238.774 150.24 231.639 143.068L231.638 143.067C227.426 138.824 222.535 135.534 217.608 132.562C212.575 129.525 207.726 126.938 203.024 123.843C198.824 121.079 194.392 117.534 190.98 113.379C187.567 109.223 185.296 104.606 185.107 99.6462C184.72 89.5226 189.201 79.1504 197.482 73.0012C204.43 67.843 213.17 65.8491 222.205 63.9047L222.207 63.904C241.06 59.8342 259.911 55.7842 278.756 51.7234L278.758 51.7227C285.776 50.2044 292.559 48.7732 299.283 48.8775C305.98 48.9814 312.521 50.7754 317.136 54.8518Z" fill="#FFA45C" stroke="white" stroke-width="5"/>
<path d="M115.732 60.2299C119.476 56.5296 125.27 56.5295 129.014 60.2299C129.08 60.2955 129.161 60.3788 129.373 60.5971C129.491 60.7181 129.566 60.7949 129.639 60.8676C133.265 64.5008 138.445 65.9759 143.378 64.7172C143.477 64.692 143.579 64.6644 143.738 64.6215C144.027 64.5436 144.135 64.5141 144.222 64.4926C149.132 63.2764 154.242 66.2581 155.763 71.5698C155.789 71.6633 155.821 71.7796 155.9 72.0795C155.945 72.2467 155.973 72.3518 156.001 72.4516C157.392 77.4335 161.126 81.3962 165.983 82.8911C166.081 82.921 166.183 82.9512 166.341 82.9975C166.628 83.0816 166.736 83.1131 166.821 83.1401C171.706 84.6808 174.755 90.0383 173.532 95.477C173.511 95.5721 173.482 95.6892 173.408 95.9907C173.367 96.1588 173.341 96.2646 173.317 96.3657C172.151 101.402 173.499 106.736 176.945 110.527C177.015 110.603 177.088 110.682 177.203 110.805C177.411 111.028 177.49 111.113 177.553 111.183C181.143 115.186 181.143 121.474 177.553 125.476C177.49 125.546 177.411 125.631 177.203 125.854C177.088 125.977 177.015 126.056 176.945 126.132C173.499 129.923 172.151 135.257 173.317 140.293C173.341 140.394 173.367 140.5 173.408 140.668C173.482 140.97 173.511 141.087 173.532 141.182C174.755 146.621 171.706 151.978 166.821 153.519C166.736 153.546 166.628 153.577 166.341 153.662C166.183 153.708 166.081 153.738 165.983 153.768C161.126 155.263 157.392 159.226 156.001 164.207C155.973 164.307 155.945 164.412 155.9 164.58C155.821 164.879 155.789 164.996 155.763 165.089C154.242 170.401 149.132 173.383 144.222 172.166C144.135 172.145 144.027 172.115 143.738 172.038C143.579 171.995 143.477 171.967 143.378 171.942C138.445 170.683 133.265 172.158 129.639 175.791C129.566 175.864 129.491 175.941 129.373 176.062C129.161 176.28 129.08 176.364 129.014 176.429C125.27 180.13 119.476 180.129 115.732 176.429C115.666 176.364 115.585 176.281 115.372 176.062C115.255 175.941 115.18 175.864 115.107 175.791C111.481 172.158 106.301 170.683 101.368 171.942C101.269 171.967 101.167 171.995 101.008 172.038C100.719 172.115 100.611 172.145 100.524 172.166C95.614 173.383 90.5027 170.401 88.9824 165.089C88.9556 164.996 88.9244 164.88 88.8447 164.58C88.8003 164.412 88.773 164.307 88.7451 164.207C87.3538 159.226 83.6205 155.263 78.7627 153.768C78.6653 153.738 78.5635 153.708 78.4053 153.662C78.118 153.577 78.0104 153.546 77.9248 153.519C73.04 151.978 69.9913 146.621 71.2139 141.182C71.2353 141.087 71.2641 140.97 71.3379 140.668C71.379 140.5 71.4043 140.394 71.4277 140.293C72.5939 135.257 71.2467 129.923 67.8008 126.132C67.7316 126.056 67.6583 125.977 67.543 125.854C67.3348 125.631 67.255 125.546 67.1924 125.476C63.6023 121.474 63.6023 115.185 67.1924 111.183C67.255 111.113 67.3348 111.028 67.543 110.805C67.6583 110.682 67.7316 110.603 67.8008 110.527C71.2467 106.736 72.5939 101.402 71.4277 96.3657C71.4043 96.2646 71.379 96.1587 71.3379 95.9907C71.2641 95.6892 71.2353 95.5721 71.2139 95.477C69.9913 90.0382 73.04 84.6806 77.9248 83.1401C78.0104 83.1131 78.1181 83.0816 78.4053 82.9975C78.5634 82.9512 78.6653 82.921 78.7627 82.8911C83.6205 81.3962 87.3538 77.4335 88.7451 72.4516C88.773 72.3517 88.8003 72.2466 88.8447 72.0795C88.9244 71.7795 88.9556 71.6633 88.9824 71.5698C90.5027 66.2579 95.614 63.2762 100.524 64.4926C100.611 64.5141 100.719 64.5436 101.008 64.6215C101.167 64.6644 101.269 64.692 101.368 64.7172C106.301 65.9759 111.481 64.5008 115.107 60.8676C115.18 60.795 115.255 60.718 115.372 60.5971C115.585 60.3786 115.666 60.2955 115.732 60.2299Z" fill="#392B58" stroke="white" stroke-width="5"/>
<path d="M258.51 201.603C269.256 196.721 280.062 199.943 287.099 207.303C294.147 214.675 297.299 226.102 292.571 237.49L290.871 241.581C287.479 249.751 287.479 259.021 290.871 267.191L292.571 271.283C297.299 282.671 294.147 294.098 287.099 301.47C280.061 308.83 269.256 312.051 258.51 307.169L254.597 305.392C246.715 301.812 237.759 301.812 229.877 305.392L225.965 307.169C215.219 312.051 204.414 308.83 197.376 301.47C190.328 294.098 187.175 282.671 191.904 271.283L193.603 267.191C196.995 259.021 196.995 249.751 193.603 241.581L191.904 237.49C187.175 226.102 190.328 214.675 197.376 207.303C204.414 199.943 215.219 196.721 225.965 201.603L229.877 203.38C237.759 206.96 246.715 206.96 254.597 203.38L258.51 201.603Z" fill="#BFD7FF" stroke="white" stroke-width="5"/>
</svg>
