<svg width="119" height="114" viewBox="0 0 119 114" fill="none" xmlns="http://www.w3.org/2000/svg">
<path d="M10.6079 79.0381C5.63862 72.1969 3.15401 68.7763 1.91885 65.1305C0.132356 59.8574 0.132356 54.1424 1.91885 48.8692C3.15401 45.2235 5.63862 41.8029 10.6079 34.9617L21.782 19.5781C24.733 15.5155 26.2085 13.4842 27.9798 11.8283C30.5397 9.43527 33.5682 7.5995 36.8737 6.43712C39.161 5.63283 41.6441 5.26459 46.6103 4.52809L65.8162 1.67983C74.5285 0.387783 78.8847 -0.258239 82.8109 0.393825C88.4903 1.33704 93.6789 4.18743 97.5217 8.47524C100.178 11.4395 101.97 15.4631 105.555 23.5102L113.675 41.742C115.838 46.598 116.919 49.0261 117.472 51.5224C118.271 55.1303 118.271 58.8694 117.472 62.4774C116.919 64.9737 115.838 67.4017 113.675 72.2577L105.555 90.4895C101.97 98.5367 100.178 102.56 97.5217 105.525C93.6789 109.812 88.4903 112.663 82.8109 113.606C78.8847 114.258 74.5285 113.612 65.8162 112.32L46.6103 109.472C41.6441 108.735 39.161 108.367 36.8737 107.563C33.5682 106.4 30.5397 104.564 27.9798 102.171C26.2085 100.516 24.733 98.4842 21.782 94.4216L10.6079 79.0381Z" fill="#FFF4E8"/>
</svg>
