<svg width="380" height="381" viewBox="0 0 380 381" fill="none" xmlns="http://www.w3.org/2000/svg">
<path d="M133.415 66.4998C150.981 53.741 159.763 47.3616 169.124 44.1902C182.663 39.6033 197.337 39.6033 210.876 44.1902C220.237 47.3616 229.019 53.741 246.585 66.4998L286.083 95.1902C296.514 102.767 301.729 106.555 305.981 111.103C312.125 117.676 316.839 125.452 319.823 133.939C321.888 139.812 322.834 146.187 324.725 158.939L332.038 208.251C335.355 230.62 337.014 241.805 335.34 251.886C332.918 266.468 325.6 279.79 314.59 289.657C306.979 296.478 296.649 301.079 275.987 310.282L229.176 331.132C216.707 336.685 210.473 339.462 204.064 340.881C194.8 342.932 185.2 342.932 175.936 340.881C169.527 339.462 163.293 336.685 150.824 331.132L104.013 310.282C83.3515 301.079 73.0207 296.478 65.4097 289.657C54.4005 279.79 47.0819 266.468 44.6602 251.886C42.9859 241.805 44.6447 230.62 47.9621 208.251L55.2752 158.939C57.1662 146.187 58.1117 139.812 60.1768 133.939C63.1612 125.452 67.8747 117.676 74.0191 111.103C78.2706 106.555 83.4862 102.767 93.9172 95.1902L133.415 66.4998Z" fill="#2A2B2B"/>
</svg>
