<svg width="120" height="106" viewBox="0 0 120 106" fill="none" xmlns="http://www.w3.org/2000/svg">
<path d="M87.1583 21.897C83.7049 16.5556 80.1902 11.1401 75.5209 6.89875C70.8516 2.64678 64.803 -0.357096 58.6011 0.0342543C53.1553 0.383296 48.108 3.32371 44.1233 7.16317C40.1386 11.0026 37.0427 15.7306 33.998 20.4162C25.7629 33.0663 17.5176 45.7164 9.2825 58.3772C5.36929 64.3849 1.35392 70.6571 0.270891 77.8177C-1.03692 86.4697 2.48803 95.2804 8.74098 101.034C15.28 107.053 25.8753 106.566 33.8345 104.916C42.5601 103.107 51.0914 99.7016 59.9907 99.7122C67.6127 99.7122 74.9794 102.23 82.3971 104.059C89.8046 105.879 97.7638 107 104.916 104.292C113.795 100.939 120.17 91.4092 119.997 81.6255C119.833 72.6985 110.065 57.2983 110.065 57.2983C110.065 57.2983 94.7925 33.6984 87.1583 21.897Z" fill="#FFA45C"/>
</svg>
