<svg width="381" height="380" viewBox="0 0 381 380" fill="none" xmlns="http://www.w3.org/2000/svg">
<path d="M263.172 104.907C253.963 90.2936 244.59 75.4777 232.139 63.8739C219.688 52.2412 203.558 44.023 187.02 45.0937C172.498 46.0486 159.038 54.0932 148.412 64.5974C137.786 75.1015 129.531 88.0365 121.411 100.856C99.4511 135.464 77.4636 170.073 55.5033 204.711C45.0681 221.147 34.3605 238.307 31.4724 257.898C27.9849 281.568 37.3848 305.673 54.0593 321.415C71.4967 337.88 99.7508 336.549 120.975 332.035C144.243 327.086 166.994 317.769 190.725 317.797C211.051 317.797 230.695 324.685 250.476 329.691C270.229 334.668 291.454 337.735 310.526 330.327C334.203 321.154 351.204 295.082 350.741 268.315C350.305 243.892 324.258 201.759 324.258 201.759C324.258 201.759 283.53 137.194 263.172 104.907Z" fill="#2A2B2B"/>
</svg>
