<svg width="32" height="32" viewBox="0 0 32 32" fill="none" xmlns="http://www.w3.org/2000/svg">
<path d="M20.5084 23.7302C19.2338 25.9517 18.5965 27.0625 17.8238 27.5317C16.7033 28.2121 15.2966 28.2121 14.1761 27.5317C13.4033 27.0625 12.766 25.9517 11.4914 23.7302L4.60547 11.7287C3.34309 9.52854 2.71191 8.42844 2.69525 7.52961C2.67111 6.22639 3.37259 5.01732 4.51663 4.39026C5.30568 3.95778 6.57512 3.95778 9.114 3.95778L22.8858 3.95778C25.4247 3.95778 26.6941 3.95778 27.4832 4.39026C28.6272 5.01732 29.3287 6.22639 29.3046 7.52961C29.2879 8.42844 28.6567 9.52854 27.3944 11.7287L20.5084 23.7302Z" fill="#E53935"/>
</svg>
