<svg width="32" height="32" viewBox="0 0 32 32" fill="none" xmlns="http://www.w3.org/2000/svg">
<path d="M11.4916 8.26977C12.7662 6.04826 13.4035 4.9375 14.1762 4.46827C15.2967 3.78792 16.7034 3.78792 17.8239 4.46827C18.5967 4.9375 19.234 6.04825 20.5086 8.26976L27.3945 20.2713C28.6569 22.4715 29.2881 23.5716 29.3047 24.4704C29.3289 25.7736 28.6274 26.9827 27.4834 27.6097C26.6943 28.0422 25.4249 28.0422 22.886 28.0422H9.11417C6.5753 28.0422 5.30586 28.0422 4.5168 27.6097C3.37276 26.9827 2.67128 25.7736 2.69543 24.4704C2.71208 23.5716 3.34327 22.4715 4.60564 20.2713L11.4916 8.26977Z" fill="#43A047"/>
</svg>
