<svg width="381" height="380" viewBox="0 0 381 380" fill="none" xmlns="http://www.w3.org/2000/svg">
<path d="M230.639 50.473C293.359 23.2328 357.017 86.8908 329.777 149.611L325.273 159.981C316.957 179.13 316.957 200.87 325.273 220.019L329.777 230.389C357.017 293.109 293.359 356.767 230.639 329.527L220.269 325.023C201.12 316.707 179.38 316.707 160.231 325.023L149.861 329.527C87.1408 356.767 23.4828 293.109 50.723 230.389L55.2268 220.019C63.5434 200.87 63.5434 179.13 55.2268 159.981L50.723 149.611C23.4828 86.8908 87.1408 23.2328 149.861 50.473L160.231 54.9768C179.38 63.2934 201.12 63.2934 220.269 54.9768L230.639 50.473Z" fill="#2A2B2B"/>
</svg>
