<svg width="102" height="106" viewBox="0 0 102 106" fill="none" xmlns="http://www.w3.org/2000/svg">
<path d="M65.1086 2.34978C87.0176 -7.53879 109.254 15.57 99.7389 38.3382L98.1656 42.1026C95.2605 49.0539 95.2605 56.9461 98.1656 63.8974L99.7389 67.6618C109.254 90.4301 87.0176 113.539 65.1085 103.65L61.4862 102.015C54.7972 98.9962 47.2028 98.9962 40.5138 102.015L36.8914 103.65C14.9824 113.539 -7.25431 90.43 2.26111 67.6618L3.83438 63.8974C6.73949 56.9461 6.73948 49.0539 3.83437 42.1026L2.26111 38.3382C-7.25431 15.5699 14.9824 -7.53879 36.8915 2.34979L40.5138 3.98474C47.2028 7.00378 54.7972 7.00377 61.4862 3.98473L65.1086 2.34978Z" fill="#BFD7FF"/>
</svg>
