<svg width="381" height="381" viewBox="0 0 381 381" fill="none" xmlns="http://www.w3.org/2000/svg">
<path d="M134.936 55.3154C166.026 25.2282 215.474 25.2282 246.564 55.3154C256.078 64.5218 267.734 71.2311 280.488 74.8419C322.169 86.6424 346.892 129.336 336.302 171.223C333.062 184.041 333.062 197.459 336.302 210.277C346.892 252.164 322.169 294.858 280.488 306.658C267.734 310.269 256.078 316.978 246.564 326.185C215.474 356.272 166.026 356.272 134.936 326.185C125.422 316.978 113.766 310.269 101.012 306.658C59.3315 294.858 34.6078 252.164 45.1976 210.277C48.4379 197.459 48.4379 184.041 45.1976 171.223C34.6078 129.336 59.3315 86.6424 101.012 74.8419C113.766 71.2311 125.422 64.5218 134.936 55.3154Z" fill="#2A2B2B"/>
</svg>
