<svg width="112" height="116" viewBox="0 0 112 116" fill="none" xmlns="http://www.w3.org/2000/svg">
<path d="M47.8438 3.56911C48.0332 3.37694 48.1279 3.28085 48.21 3.20081C52.586 -1.06694 59.414 -1.06694 63.79 3.20081C63.8721 3.28085 63.9668 3.37694 64.1562 3.56911C64.2698 3.68443 64.3266 3.74209 64.3806 3.79547C67.1808 6.56326 71.1487 7.66443 74.9099 6.71753C74.9824 6.69927 75.0595 6.67876 75.2135 6.63774C75.4703 6.56938 75.5987 6.5352 75.7084 6.50839C81.5584 5.07855 87.4717 8.61451 89.2011 14.5766C89.2336 14.6884 89.2692 14.8207 89.3404 15.0852C89.3832 15.2439 89.4045 15.3233 89.4255 15.3975C90.5144 19.2445 93.4191 22.253 97.1335 23.3807C97.2051 23.4024 97.2817 23.4246 97.435 23.4688C97.6904 23.5426 97.8181 23.5795 97.926 23.6131C103.683 25.4043 107.097 31.5288 105.716 37.5877C105.69 37.7013 105.657 37.8343 105.591 38.1003C105.552 38.2598 105.532 38.3396 105.514 38.4148C104.6 42.3103 105.663 46.4199 108.335 49.3201C108.387 49.376 108.443 49.4349 108.554 49.5526C108.74 49.7487 108.832 49.8468 108.91 49.9318C113.03 54.464 113.03 61.536 108.91 66.0682C108.832 66.1532 108.74 66.2513 108.554 66.4474C108.443 66.5651 108.387 66.624 108.335 66.6799C105.663 69.5801 104.6 73.6897 105.514 77.5852C105.532 77.6604 105.552 77.7402 105.591 77.8997C105.657 78.1657 105.69 78.2987 105.716 78.4123C107.097 84.4712 103.683 90.5957 97.926 92.3869C97.8181 92.4205 97.6904 92.4574 97.435 92.5312C97.2817 92.5754 97.2051 92.5976 97.1335 92.6193C93.4191 93.747 90.5144 96.7555 89.4255 100.603C89.4045 100.677 89.3832 100.756 89.3404 100.915C89.2692 101.179 89.2336 101.312 89.2011 101.423C87.4717 107.385 81.5584 110.921 75.7084 109.492C75.5987 109.465 75.4703 109.431 75.2135 109.362C75.0595 109.321 74.9824 109.301 74.9099 109.282C71.1487 108.336 67.1808 109.437 64.3806 112.205C64.3266 112.258 64.2698 112.316 64.1562 112.431C63.9668 112.623 63.8721 112.719 63.79 112.799C59.414 117.067 52.586 117.067 48.21 112.799C48.1279 112.719 48.0332 112.623 47.8438 112.431C47.7302 112.316 47.6734 112.258 47.6194 112.205C44.8192 109.437 40.8513 108.336 37.0901 109.282C37.0176 109.301 36.9405 109.321 36.7865 109.362C36.5297 109.431 36.4013 109.465 36.2916 109.492C30.4416 110.921 24.5283 107.385 22.7989 101.423C22.7664 101.312 22.7308 101.179 22.6596 100.915C22.6168 100.756 22.5955 100.677 22.5745 100.603C21.4856 96.7555 18.5809 93.747 14.8665 92.6193C14.7949 92.5976 14.7183 92.5754 14.565 92.5312C14.3096 92.4574 14.1819 92.4205 14.074 92.3869C8.31746 90.5957 4.90343 84.4712 6.28396 78.4123C6.30985 78.2987 6.34285 78.1657 6.40885 77.8997C6.44846 77.7402 6.46826 77.6604 6.48589 77.5852C7.40014 73.6897 6.33694 69.5801 3.66459 66.6799C3.61305 66.624 3.55738 66.5651 3.44604 66.4474C3.26049 66.2513 3.16772 66.1532 3.09044 66.0682C-1.03015 61.536 -1.03015 54.464 3.09044 49.9318C3.16772 49.8468 3.26049 49.7487 3.44604 49.5526C3.55738 49.4349 3.61305 49.376 3.66459 49.3201C6.33694 46.4199 7.40014 42.3103 6.48589 38.4148C6.46826 38.3396 6.44846 38.2599 6.40885 38.1003C6.34285 37.8343 6.30985 37.7013 6.28396 37.5877C4.90343 31.5288 8.31746 25.4043 14.074 23.6131C14.1819 23.5795 14.3096 23.5426 14.565 23.4688C14.7183 23.4246 14.7949 23.4024 14.8665 23.3807C18.5809 22.253 21.4856 19.2445 22.5745 15.3975C22.5955 15.3233 22.6168 15.2439 22.6596 15.0852C22.7308 14.8207 22.7664 14.6884 22.7989 14.5766C24.5283 8.61451 30.4416 5.07855 36.2916 6.50839C36.4013 6.5352 36.5297 6.56938 36.7865 6.63774C36.9405 6.67876 37.0176 6.69927 37.0901 6.71753C40.8513 7.66443 44.8192 6.56326 47.6194 3.79547C47.6734 3.74209 47.7302 3.68443 47.8438 3.56911Z" fill="#392B58"/>
</svg>
