<svg width="381" height="381" viewBox="0 0 381 381" fill="none" xmlns="http://www.w3.org/2000/svg">
<path d="M40.5 183.607C40.5 104.709 107.657 40.75 190.5 40.75C273.343 40.75 340.5 104.709 340.5 183.607L340.5 283.607C340.5 315.166 313.637 340.75 280.5 340.75C270.678 340.75 261.407 338.502 253.224 334.518C249.054 332.487 244.894 330.262 240.716 328.027C226.013 320.161 211.092 312.179 194.77 312.179H186.23C169.908 312.179 154.987 320.161 140.284 328.027C136.106 330.262 131.946 332.487 127.776 334.518C119.593 338.502 110.322 340.75 100.5 340.75C67.3629 340.75 40.5 315.166 40.5 283.607L40.5 183.607Z" fill="#2A2B2B"/>
</svg>
