<svg width="85" height="93" viewBox="0 0 85 93" fill="#2A2B2B" xmlns="http://www.w3.org/2000/svg">
<path d="M69.3146 30.8611C77.0205 35.2823 80.8734 37.493 82.5011 40.1736C84.861 44.0603 84.861 48.9398 82.5011 52.8265C80.8734 55.5071 77.0205 57.7177 69.3147 62.139L27.6845 86.0245C20.0525 90.4034 16.2365 92.5928 13.1187 92.6506C8.59819 92.7343 4.40421 90.3011 2.22911 86.3327C0.728936 83.5956 0.728944 79.1923 0.728944 70.3856L0.728944 22.6145C0.728944 13.8078 0.728936 9.40444 2.22911 6.6674C4.40421 2.699 8.59819 0.265752 13.1187 0.349507C16.2365 0.407273 20.0525 2.5967 27.6844 6.97555L69.3146 30.8611Z"/>
</svg>
